<svg width="20" height="20" viewBox="0 0 20 20" fill="none" xmlns="http://www.w3.org/2000/svg">
<path d="M9.58334 2.5C11.683 2.5 13.6966 3.33407 15.1813 4.81874C16.6659 6.3034 17.5 8.31704 17.5 10.4167C17.5 12.5163 16.6659 14.5299 15.1813 16.0146C13.6966 17.4993 11.683 18.3333 9.58334 18.3333C7.48371 18.3333 5.47007 17.4993 3.98541 16.0146C2.50075 14.5299 1.66667 12.5163 1.66667 10.4167C1.66667 8.31704 2.50075 6.3034 3.98541 4.81874C5.47007 3.33407 7.48371 2.5 9.58334 2.5ZM9.58334 3.33333C7.70472 3.33333 5.90305 4.07961 4.57467 5.40799C3.24628 6.73638 2.50001 8.53805 2.50001 10.4167C2.50001 12.2953 3.24628 14.097 4.57467 15.4253C5.90305 16.7537 7.70472 17.5 9.58334 17.5C10.5135 17.5 11.4346 17.3168 12.294 16.9608C13.1534 16.6048 13.9343 16.0831 14.592 15.4253C15.2498 14.7676 15.7715 13.9867 16.1275 13.1273C16.4835 12.268 16.6667 11.3469 16.6667 10.4167C16.6667 8.53805 15.9204 6.73638 14.592 5.40799C13.2636 4.07961 11.462 3.33333 9.58334 3.33333ZM9.16667 5.83333H10V10.35L13.9167 12.6083L13.5 13.3333L9.16667 10.8333V5.83333Z" fill="#2B2D42"/>
</svg>
